<svg xmlns="http://www.w3.org/2000/svg" viewBox="0 0 1200 800" role="img" aria-labelledby="title desc">
  <title id="title">Gride merchant placeholder</title>
  <desc id="desc">A teal branded placeholder image for a merchant without a photo.</desc>
  <defs>
    <linearGradient id="bg" x1="0" y1="0" x2="1" y2="1">
      <stop offset="0" stop-color="#064e3b"/>
      <stop offset="0.55" stop-color="#0f766e"/>
      <stop offset="1" stop-color="#14b8a6"/>
    </linearGradient>
    <filter id="shadow" x="-20%" y="-20%" width="140%" height="140%">
      <feDropShadow dx="0" dy="10" stdDeviation="12" flood-color="#022c22" flood-opacity=".35"/>
    </filter>
  </defs>
  <rect width="1200" height="800" fill="url(#bg)"/>
  <circle cx="1030" cy="150" r="220" fill="#ffffff" opacity=".08"/>
  <circle cx="120" cy="730" r="260" fill="#ffffff" opacity=".06"/>
  <g transform="translate(600 330)" filter="url(#shadow)">
    <rect x="-125" y="-90" width="250" height="210" rx="24" fill="#ffffff" opacity=".96"/>
    <path d="M-112-90h224l-22-62h-180z" fill="#d1fae5"/>
    <path d="M-112-90h224l-16 40c-5 13-18 22-32 22s-27-9-32-22c-5 13-18 22-32 22s-27-9-32-22c-5 13-18 22-32 22s-27-9-32-22z" fill="#10b981"/>
    <rect x="-78" y="-20" width="156" height="140" rx="10" fill="#ecfdf5"/>
    <path d="M-42 120V38h84v82" fill="#0f766e"/>
    <circle cx="0" cy="-54" r="20" fill="#ffffff" opacity=".9"/>
    <path d="M-10-54h20M0-64v20" stroke="#0f766e" stroke-width="7" stroke-linecap="round"/>
  </g>
  <text x="600" y="650" text-anchor="middle" fill="#ffffff" font-family="Arial, sans-serif" font-size="62" font-weight="700" letter-spacing="4">GRIDE</text>
  <text x="600" y="705" text-anchor="middle" fill="#d1fae5" font-family="Arial, sans-serif" font-size="24" letter-spacing="3">MERCHANT PHOTO</text>
</svg>
